<svg xmlns="http://www.w3.org/2000/svg" xmlns:xlink="http://www.w3.org/1999/xlink" viewBox="0 0 302 150" width="302" height="150"><path d="M 147.000,50.500 C 143.449,51.350 143.500,51.500 140.000,52.500" stroke-width="5.263" stroke="black" fill="none" stroke-linecap="round"></path><path d="M 140.000,52.500 C 137.351,53.217 137.449,53.350 135.000,54.500" stroke-width="4.528" stroke="black" fill="none" stroke-linecap="round"></path><path d="M 135.000,54.500 C 131.113,55.753 131.851,56.217 129.000,58.500" stroke-width="4.784" stroke="black" fill="none" stroke-linecap="round"></path><path d="M 129.000,58.500 C 126.455,62.843 126.113,62.253 125.000,67.500" stroke-width="3.857" stroke="black" fill="none" stroke-linecap="round"></path><path d="M 125.000,67.500 C 123.299,71.229 123.955,70.843 124.000,74.500" stroke-width="4.549" stroke="black" fill="none" stroke-linecap="round"></path><path d="M 124.000,74.500 C 125.564,78.333 124.799,78.229 128.000,81.500" stroke-width="4.548" stroke="black" fill="none" stroke-linecap="round"></path><path d="M 128.000,81.500 C 131.124,84.385 130.564,84.833 134.000,87.500" stroke-width="3.900" stroke="black" fill="none" stroke-linecap="round"></path><path d="M 134.000,87.500 C 136.754,91.254 137.124,90.885 140.000,94.500" stroke-width="3.719" stroke="black" fill="none" stroke-linecap="round"></path><path d="M 140.000,94.500 C 142.314,96.791 142.254,96.754 145.000,98.500" stroke-width="3.969" stroke="black" fill="none" stroke-linecap="round"></path><path d="M 145.000,98.500 C 147.833,100.708 147.814,100.291 151.000,101.500" stroke-width="4.438" stroke="black" fill="none" stroke-linecap="round"></path><path d="M 151.000,101.500 C 154.043,101.106 153.833,102.208 157.000,101.500" stroke-width="4.238" stroke="black" fill="none" stroke-linecap="round"></path><path d="M 157.000,101.500 C 161.529,102.382 161.543,102.106 166.000,103.500" stroke-width="3.806" stroke="black" fill="none" stroke-linecap="round"></path><path d="M 166.000,103.500 C 171.406,105.701 171.529,104.882 177.000,106.500" stroke-width="3.425" stroke="black" fill="none" stroke-linecap="round"></path><path d="M 177.000,106.500 C 182.026,106.189 181.906,107.201 187.000,106.500" stroke-width="3.506" stroke="black" fill="none" stroke-linecap="round"></path><path d="M 187.000,106.500 C 189.981,107.500 190.026,106.689 193.000,107.500" stroke-width="3.886" stroke="black" fill="none" stroke-linecap="round"></path><path d="M 193.000,107.500 C 199.252,108.399 198.481,107.500 204.000,106.500" stroke-width="4.131" stroke="black" fill="none" stroke-linecap="round"></path><path d="M 204.000,106.500 C 206.048,104.037 206.752,105.399 208.000,101.500" stroke-width="4.051" stroke="black" fill="none" stroke-linecap="round"></path><path d="M 208.000,101.500 C 211.897,97.939 211.048,97.537 214.000,93.500" stroke-width="3.680" stroke="black" fill="none" stroke-linecap="round"></path><path d="M 214.000,93.500 C 215.561,88.016 216.397,88.439 217.000,82.500" stroke-width="3.455" stroke="black" fill="none" stroke-linecap="round"></path><path d="M 217.000,82.500 C 219.132,76.578 218.561,76.516 220.000,70.500" stroke-width="3.252" stroke="black" fill="none" stroke-linecap="round"></path><path d="M 220.000,70.500 C 220.000,66.000 220.632,66.078 220.000,61.500" stroke-width="3.488" stroke="black" fill="none" stroke-linecap="round"></path><path d="M 220.000,61.500 C 221.416,57.625 220.000,58.500 220.000,55.500" stroke-width="3.931" stroke="black" fill="none" stroke-linecap="round"></path><path d="M 220.000,55.500 C 217.088,53.787 218.416,53.125 214.000,52.500" stroke-width="4.606" stroke="black" fill="none" stroke-linecap="round"></path><path d="M 214.000,52.500 C 211.069,51.208 211.088,51.287 208.000,50.500" stroke-width="4.685" stroke="black" fill="none" stroke-linecap="round"></path><path d="M 208.000,50.500 C 204.480,49.295 204.569,49.708 201.000,49.500" stroke-width="4.960" stroke="black" fill="none" stroke-linecap="round"></path><path d="M 201.000,49.500 C 196.016,50.588 195.980,49.795 191.000,51.500" stroke-width="3.784" stroke="black" fill="none" stroke-linecap="round"></path><path d="M 191.000,51.500 C 185.008,52.551 185.016,52.588 179.000,53.500" stroke-width="3.416" stroke="black" fill="none" stroke-linecap="round"></path><path d="M 179.000,53.500 C 175.516,54.230 175.508,54.051 172.000,54.500" stroke-width="3.787" stroke="black" fill="none" stroke-linecap="round"></path><path d="M 172.000,54.500 C 168.979,54.748 169.016,54.730 166.000,54.500" stroke-width="3.995" stroke="black" fill="none" stroke-linecap="round"></path><path d="M 166.000,54.500 C 162.972,54.137 162.979,54.248 160.000,53.500" stroke-width="4.508" stroke="black" fill="none" stroke-linecap="round"></path><path d="M 160.000,53.500 C 155.962,52.632 155.972,52.637 152.000,51.500" stroke-width="4.728" stroke="black" fill="none" stroke-linecap="round"></path><circle r="1.5" cx="166" cy="71.5" fill="black"></circle></svg>